<svg width="48" height="49" viewBox="0 0 48 49" fill="none" xmlns="http://www.w3.org/2000/svg">
<path d="M25.9998 6.30762C33.7598 6.30762 39.9998 12.5876 39.9998 20.3076C39.9998 25.9076 36.7398 30.6876 31.9998 32.9276V42.3076H17.9998V36.3076H15.9998C13.7798 36.3076 11.9998 34.5276 11.9998 32.3076V26.3076H8.99984C8.15984 26.3076 7.67984 25.3076 8.15984 24.6876L11.9998 19.6276C12.3798 12.2076 18.4598 6.30762 25.9998 6.30762ZM25.9998 2.30762C16.8198 2.30762 9.21984 9.14762 8.11984 18.1076L4.99984 22.3076H4.93984L4.89984 22.3676C3.79984 23.8876 3.65984 25.8876 4.51984 27.5476C5.23984 28.9276 6.51984 29.8876 7.99984 30.1876V32.3076C7.99984 36.0076 10.5598 39.1476 13.9998 40.0476V46.3076H35.9998V35.3076C40.9998 31.9676 43.9998 26.4276 43.9998 20.3076C43.9998 10.3676 35.9198 2.30762 25.9998 2.30762ZM34.6598 18.9076L30.7398 19.9276L33.6198 22.8476C34.3198 23.5276 34.3198 24.6876 33.6198 25.3876C32.9198 26.0876 31.7598 26.0876 31.0798 25.3876L28.1798 22.5076L27.1398 26.4276C26.8998 27.4076 25.9198 27.9476 24.9998 27.7076C23.9998 27.4476 23.4398 26.4676 23.6798 25.4876L24.7398 21.5676L20.8198 22.6276C19.8398 22.8676 18.8598 22.3076 18.5998 21.3076C18.3598 20.4076 18.9198 19.4076 19.8798 19.1676L23.7998 18.1276L20.9198 15.2276C20.2198 14.5476 20.2198 13.4076 20.9198 12.6876C21.6198 11.9876 22.7798 11.9876 23.4598 12.6876L26.3798 15.5676L27.3998 11.6476C27.6398 10.6676 28.6398 10.1076 29.5798 10.3676C30.5598 10.6276 31.1198 11.6076 30.8598 12.5676L29.7998 16.5076L33.7398 15.4476C34.6998 15.1876 35.6798 15.7476 35.9398 16.7276C36.1998 17.6676 35.6398 18.6676 34.6598 18.9076Z" fill="#FDE9C9" fill-opacity="0.9"/>
</svg>
