<svg width="48" height="49" viewBox="0 0 48 49" fill="none" xmlns="http://www.w3.org/2000/svg">
<path d="M38 8.30762H36V4.30762H32V8.30762H16V4.30762H12V8.30762H10C8.93913 8.30762 7.92172 8.72904 7.17157 9.47919C6.42143 10.2293 6 11.2468 6 12.3076V40.3076C6 41.3685 6.42143 42.3859 7.17157 43.136C7.92172 43.8862 8.93913 44.3076 10 44.3076H38C39.0609 44.3076 40.0783 43.8862 40.8284 43.136C41.5786 42.3859 42 41.3685 42 40.3076V12.3076C42 11.2468 41.5786 10.2293 40.8284 9.47919C40.0783 8.72904 39.0609 8.30762 38 8.30762ZM38 40.3076H10V20.3076H38V40.3076ZM10 16.3076V12.3076H38V16.3076H10ZM21.12 37.2276L33 25.3676L30.86 23.2476L21.12 32.9876L16.9 28.7676L14.78 30.8876L21.12 37.2276Z" fill="#FDE9C9" fill-opacity="0.9"/>
</svg>
