<svg width="48" height="49" viewBox="0 0 48 49" fill="none" xmlns="http://www.w3.org/2000/svg">
<path d="M6 6.30778C5.46957 6.30778 4.96086 6.51849 4.58579 6.89357C4.21071 7.26864 4 7.77735 4 8.30778V16.3078V19.3078C4 22.6878 6.06 25.5678 9 26.7478V39.3078C9 40.1034 9.31607 40.8665 9.87868 41.4291C10.4413 41.9917 11.2044 42.3078 12 42.3078C12.7956 42.3078 13.5587 41.9917 14.1213 41.4291C14.6839 40.8665 15 40.1034 15 39.3078V26.7478C17.94 25.5678 20 22.6878 20 19.3078V16.3078V8.30778C20 7.77735 19.7893 7.26864 19.4142 6.89357C19.0391 6.51849 18.5304 6.30778 18 6.30778C17.4696 6.30778 16.9609 6.51849 16.5858 6.89357C16.2107 7.26864 16 7.77735 16 8.30778V16.3078C16 16.573 15.8946 16.8274 15.7071 17.0149C15.5196 17.2024 15.2652 17.3078 15 17.3078C14.7348 17.3078 14.4804 17.2024 14.2929 17.0149C14.1054 16.8274 14 16.573 14 16.3078V8.30778C14 7.77735 13.7893 7.26864 13.4142 6.89357C13.0391 6.51849 12.5304 6.30778 12 6.30778C11.4696 6.30778 10.9609 6.51849 10.5858 6.89357C10.2107 7.26864 10 7.77735 10 8.30778V16.3078C10 16.573 9.89464 16.8274 9.70711 17.0149C9.51957 17.2024 9.26522 17.3078 9 17.3078C8.73478 17.3078 8.48043 17.2024 8.29289 17.0149C8.10536 16.8274 8 16.573 8 16.3078V8.30778C8 7.77735 7.78929 7.26864 7.41421 6.89357C7.03914 6.51849 6.53043 6.30778 6 6.30778ZM39.76 6.30778C39.5 6.30778 39.24 6.48778 39 6.62778L32 10.8078V18.3078H24V22.3078H26L28 42.3078H40L42 22.3078H44V18.3078H36V12.9878L41 9.98778C42 9.42778 42.26 8.30778 41.68 7.30778C41.26 6.58778 40.52 6.20778 39.76 6.30778Z" fill="#FDE9C9" fill-opacity="0.9"/>
</svg>
