<svg width="24" height="24" viewBox="0 0 24 24" fill="none" xmlns="http://www.w3.org/2000/svg">
<path d="M20.283 10.3559H11.956V13.8069H16.748C16.302 15.9999 14.435 17.2599 11.956 17.2599C11.2623 17.2611 10.5753 17.1253 9.9342 16.8604C9.29312 16.5955 8.71065 16.2066 8.2202 15.716C7.72975 15.2255 7.34097 14.6429 7.07615 14.0018C6.81134 13.3607 6.6757 12.6736 6.67701 11.9799C6.67583 11.2863 6.81156 10.5993 7.07644 9.95833C7.34131 9.31731 7.73012 8.73489 8.22055 8.24445C8.71099 7.75402 9.29341 7.36521 9.93443 7.10034C10.5754 6.83546 11.2624 6.69973 11.956 6.70091C13.215 6.70091 14.353 7.14791 15.246 7.87891L17.846 5.27991C16.262 3.89891 14.231 3.04691 11.956 3.04691C10.7818 3.04348 9.61854 3.27222 8.53306 3.71998C7.44759 4.16774 6.46135 4.82569 5.63107 5.65597C4.80079 6.48625 4.14284 7.47249 3.69508 8.55796C3.24732 9.64343 3.01858 10.8067 3.02201 11.9809C3.01845 13.1551 3.2471 14.3185 3.69481 15.404C4.14253 16.4896 4.80046 17.4758 5.63077 18.3062C6.46108 19.1365 7.44737 19.7944 8.53291 20.2421C9.61844 20.6898 10.7818 20.9185 11.956 20.9149C16.423 20.9149 20.485 17.6659 20.485 11.9809C20.485 11.4529 20.404 10.8839 20.283 10.3559Z" fill="black" fill-opacity="0.54"/>
</svg>
