<svg width="48" height="49" viewBox="0 0 48 49" fill="none" xmlns="http://www.w3.org/2000/svg">
<path d="M24 11.3076C25.8565 11.3076 27.637 12.0451 28.9497 13.3579C30.2625 14.6706 31 16.4511 31 18.3076C31 20.1641 30.2625 21.9446 28.9497 23.2574C27.637 24.5701 25.8565 25.3076 24 25.3076C22.1435 25.3076 20.363 24.5701 19.0503 23.2574C17.7375 21.9446 17 20.1641 17 18.3076C17 16.4511 17.7375 14.6706 19.0503 13.3579C20.363 12.0451 22.1435 11.3076 24 11.3076ZM10 16.3076C11.12 16.3076 12.16 16.6076 13.06 17.1476C12.76 20.0076 13.6 22.8476 15.32 25.0676C14.32 26.9876 12.32 28.3076 10 28.3076C8.4087 28.3076 6.88258 27.6755 5.75736 26.5503C4.63214 25.425 4 23.8989 4 22.3076C4 20.7163 4.63214 19.1902 5.75736 18.065C6.88258 16.9398 8.4087 16.3076 10 16.3076ZM38 16.3076C39.5913 16.3076 41.1174 16.9398 42.2426 18.065C43.3679 19.1902 44 20.7163 44 22.3076C44 23.8989 43.3679 25.425 42.2426 26.5503C41.1174 27.6755 39.5913 28.3076 38 28.3076C35.68 28.3076 33.68 26.9876 32.68 25.0676C34.4 22.8476 35.24 20.0076 34.94 17.1476C35.84 16.6076 36.88 16.3076 38 16.3076ZM11 36.8076C11 32.6676 16.82 29.3076 24 29.3076C31.18 29.3076 37 32.6676 37 36.8076V40.3076H11V36.8076ZM0 40.3076V37.3076C0 34.5276 3.78 32.1876 8.9 31.5076C7.72 32.8676 7 34.7476 7 36.8076V40.3076H0ZM48 40.3076H41V36.8076C41 34.7476 40.28 32.8676 39.1 31.5076C44.22 32.1876 48 34.5276 48 37.3076V40.3076Z" fill="#FDE9C9" fill-opacity="0.9"/>
</svg>
