<svg width="24" height="24" viewBox="0 0 24 24" fill="none" xmlns="http://www.w3.org/2000/svg">
<path d="M12.0001 7.19249C9.33995 7.19249 7.19308 9.33937 7.19308 11.9995C7.19308 14.6597 9.33995 16.8066 12.0001 16.8066C14.6603 16.8066 16.8071 14.6597 16.8071 11.9995C16.8071 9.33937 14.6603 7.19249 12.0001 7.19249ZM12.0001 15.1237C10.2798 15.1237 8.87589 13.7198 8.87589 11.9995C8.87589 10.2792 10.2798 8.87531 12.0001 8.87531C13.7204 8.87531 15.1243 10.2792 15.1243 11.9995C15.1243 13.7198 13.7204 15.1237 12.0001 15.1237ZM17.004 5.87531C16.3829 5.87531 15.8814 6.37687 15.8814 6.99796C15.8814 7.61906 16.3829 8.12062 17.004 8.12062C17.6251 8.12062 18.1267 7.6214 18.1267 6.99796C18.1269 6.85048 18.0979 6.70441 18.0416 6.56812C17.9852 6.43183 17.9026 6.308 17.7983 6.20371C17.694 6.09943 17.5701 6.01674 17.4339 5.96039C17.2976 5.90403 17.1515 5.87512 17.004 5.87531ZM21.3704 11.9995C21.3704 10.7058 21.3821 9.42374 21.3095 8.13234C21.2368 6.63234 20.8946 5.30109 19.7978 4.20421C18.6985 3.10499 17.3696 2.76515 15.8696 2.69249C14.5759 2.61984 13.2939 2.63156 12.0025 2.63156C10.7087 2.63156 9.42667 2.61984 8.13527 2.69249C6.63527 2.76515 5.30402 3.10734 4.20714 4.20421C3.10792 5.30343 2.76808 6.63234 2.69542 8.13234C2.62277 9.42609 2.63449 10.7081 2.63449 11.9995C2.63449 13.2909 2.62277 14.5753 2.69542 15.8667C2.76808 17.3667 3.11027 18.698 4.20714 19.7948C5.30636 20.8941 6.63527 21.2339 8.13527 21.3066C9.42902 21.3792 10.711 21.3675 12.0025 21.3675C13.2962 21.3675 14.5782 21.3792 15.8696 21.3066C17.3696 21.2339 18.7009 20.8917 19.7978 19.7948C20.897 18.6956 21.2368 17.3667 21.3095 15.8667C21.3845 14.5753 21.3704 13.2933 21.3704 11.9995ZM19.3079 17.5261C19.1368 17.9527 18.9306 18.2714 18.6001 18.5995C18.2696 18.93 17.9532 19.1362 17.5267 19.3073C16.2939 19.7972 13.3665 19.687 12.0001 19.687C10.6337 19.687 7.70402 19.7972 6.4712 19.3097C6.04464 19.1386 5.72589 18.9323 5.39777 18.6019C5.0673 18.2714 4.86105 17.955 4.68995 17.5284C4.20246 16.2933 4.31261 13.3659 4.31261 11.9995C4.31261 10.6331 4.20246 7.70343 4.68995 6.47062C4.86105 6.04406 5.0673 5.72531 5.39777 5.39718C5.72824 5.06906 6.04464 4.86046 6.4712 4.68937C7.70402 4.20187 10.6337 4.31203 12.0001 4.31203C13.3665 4.31203 16.2962 4.20187 17.529 4.68937C17.9556 4.86046 18.2743 5.06671 18.6025 5.39718C18.9329 5.72765 19.1392 6.04406 19.3103 6.47062C19.7978 7.70343 19.6876 10.6331 19.6876 11.9995C19.6876 13.3659 19.7978 16.2933 19.3079 17.5261Z" fill="black" fill-opacity="0.54"/>
</svg>
